<svg width="28" height="28" xmlns="http://www.w3.org/2000/svg" xmlns:xlink="http://www.w3.org/1999/xlink" xmlns:svgjs="http://svgjs.com/svgjs" fill="#fff"><svg xmlns="http://www.w3.org/2000/svg" width="28" height="28" viewBox="1.488 1 26.195 26.195"><path paint-order="stroke fill markers" fill-rule="evenodd" d="M27.418 11.461c-.171-.842-.429-1.67-.763-2.462a13.126 13.126 0 0 0-4.744-5.76 12.914 12.914 0 0 0-4.687-1.973 13.256 13.256 0 0 0-5.276 0 12.923 12.923 0 0 0-4.686 1.972 13.113 13.113 0 0 0-5.508 8.223 13.275 13.275 0 0 0 0 5.273 13.127 13.127 0 0 0 1.972 4.69 13.54 13.54 0 0 0 1.597 1.936 12.96 12.96 0 0 0 1.94 1.596 12.903 12.903 0 0 0 4.685 1.972c.865.18 1.75.268 2.639.268a13.204 13.204 0 0 0 5.1-1.027c.777-.33 1.526-.737 2.224-1.213a13.003 13.003 0 0 0 1.938-1.596 13.15 13.15 0 0 0 2.806-4.164 13.057 13.057 0 0 0 1.028-5.098c0-.885-.088-1.775-.265-2.637zm-1.649 2.524c-.163-.034-3.948-.85-7.79-.366-.079-.191-.161-.384-.242-.576a36.798 36.798 0 0 0-.743-1.623c4.417-1.802 6.208-4.396 6.231-4.428a11.148 11.148 0 0 1 2.544 6.993zm-3.794-8.282c-.029.045-1.623 2.47-5.843 4.051a56.675 56.675 0 0 0-4.182-6.527 11.285 11.285 0 0 1 2.637-.314c2.832 0 5.417 1.054 7.388 2.79zM11.907 3.237v.001s-.014.005-.035.006c0 0 .023-.001.035-.007zm-2.092.746c.146.197 2.217 3.004 4.15 6.443-5.369 1.428-10.029 1.369-10.327 1.367a11.203 11.203 0 0 1 6.177-7.81zM3.4 14.098c0-.121.006-.237.009-.354.198.004 5.727.13 11.485-1.593.32.627.63 1.265.908 1.902-.148.039-.293.086-.442.131-6.036 1.949-9.096 7.383-9.096 7.383l.003.005A11.164 11.164 0 0 1 3.4 14.098zm11.188 11.187c-2.706 0-5.192-.964-7.126-2.564.145.121.25.195.25.195s2.145-4.675 8.778-6.99a.418.418 0 0 1 .073-.02c1.576 4.088 2.226 7.514 2.39 8.495-1.34.566-2.815.884-4.365.884zm6.25-1.912c-.114-.672-.711-3.955-2.176-7.988 3.61-.576 6.738.414 6.97.49a11.168 11.168 0 0 1-4.794 7.498z"/></svg></svg>