<svg width="29" height="25" xmlns="http://www.w3.org/2000/svg" xmlns:xlink="http://www.w3.org/1999/xlink" xmlns:svgjs="http://svgjs.com/svgjs" viewBox="0.585 0 27.829 25" fill="#fff"><svg xmlns="http://www.w3.org/2000/svg" width="29" height="25" viewBox="1.803 1.144 26.394 23.711"><path paint-order="stroke fill markers" fill-rule="evenodd" d="M27.646 10.773h-3.978v-3.98a.553.553 0 0 0-.55-.551h-1.135a.55.55 0 0 0-.55.55v3.981h-3.98a.554.554 0 0 0-.554.55v1.134c0 .306.251.549.554.549h3.98v3.984c0 .303.245.547.55.547h1.134c.303 0 .55-.244.55-.547v-3.984h3.98c.303 0 .55-.243.55-.55v-1.134a.55.55 0 0 0-.55-.549zm-13.375 3.488c-.835-.593-1.6-1.46-1.61-1.728 0-.488.04-.72 1.133-1.568 1.41-1.108 2.187-2.559 2.187-4.09 0-1.393-.424-2.63-1.15-3.497h.563c.116 0 .229-.035.323-.103l1.566-1.136a.55.55 0 0 0-.322-.994H9.959c-.766 0-1.543.132-2.31.398-2.551.879-4.335 3.053-4.335 5.285 0 3.164 2.45 5.56 5.725 5.637-.066.25-.096.496-.096.736 0 .49.122.951.375 1.397h-.09c-3.12 0-5.941 1.533-7.006 3.814a4.137 4.137 0 0 0-.42 1.78c0 .576.145 1.132.437 1.652.671 1.203 2.115 2.134 4.068 2.628a13.04 13.04 0 0 0 3.212.383c1.01 0 1.973-.127 2.862-.386 2.776-.805 4.57-2.85 4.57-5.21 0-2.26-.727-3.619-2.68-4.998zm-8.841 5.18c0-1.644 2.088-3.09 4.471-3.09h.065c.521.01 1.026.082 1.503.23.166.112.32.22.474.325 1.102.75 1.83 1.246 2.035 2.045.05.201.073.399.073.594 0 2.05-1.53 3.091-4.545 3.091-2.287 0-4.076-1.402-4.076-3.195zM7.597 3.885c.374-.424.86-.647 1.41-.647h.061c1.547.043 3.028 1.772 3.301 3.842.152 1.162-.107 2.256-.69 2.923a1.838 1.838 0 0 1-1.425.65h-.026c-1.515-.048-3.027-1.839-3.3-3.91-.153-1.16.092-2.2.669-2.858z"/></svg></svg>