<svg width="28" height="23" xmlns="http://www.w3.org/2000/svg" xmlns:xlink="http://www.w3.org/1999/xlink" xmlns:svgjs="http://svgjs.com/svgjs" viewBox="0 0.122 28 22.755" fill="#fff"><svg xmlns="http://www.w3.org/2000/svg" width="28" height="23" viewBox="1.504 1.247 26.102 21.213"><path paint-order="stroke fill markers" fill-rule="evenodd" d="M27.605 3.758c-.959.426-1.99.715-3.074.842a5.356 5.356 0 0 0 2.354-2.963 10.76 10.76 0 0 1-3.399 1.303 5.356 5.356 0 0 0-9.125 4.883C9.909 7.601 5.965 5.466 3.322 2.226A5.362 5.362 0 0 0 4.98 9.379a5.357 5.357 0 0 1-2.428-.673v.07a5.361 5.361 0 0 0 4.297 5.25 5.338 5.338 0 0 1-1.412.185c-.344 0-.68-.03-1.006-.096a5.358 5.358 0 0 0 5 3.721 10.747 10.747 0 0 1-7.927 2.217 15.165 15.165 0 0 0 8.21 2.406c9.85 0 15.237-8.16 15.237-15.236 0-.23-.006-.463-.018-.693a10.908 10.908 0 0 0 2.672-2.772z"/></svg></svg>