<svg width="27" height="27" xmlns="http://www.w3.org/2000/svg" xmlns:xlink="http://www.w3.org/1999/xlink" xmlns:svgjs="http://svgjs.com/svgjs" viewBox="0 0.295 27 26.409" fill="#fff"><svg xmlns="http://www.w3.org/2000/svg" width="27" height="27" viewBox="1.006 1.29 25.988 25.42"><path paint-order="stroke fill markers" fill-rule="evenodd" d="M22.248 13.397H5.755a4.75 4.75 0 0 0-4.75 4.75v3.816a4.75 4.75 0 0 0 4.75 4.747h16.493a4.747 4.747 0 0 0 4.746-4.747v-3.816a4.747 4.747 0 0 0-4.746-4.75zM9.218 16.37H7.688v7.62h-1.48v-7.62H4.674v-1.297h4.545v1.297zm4.334 7.62h-1.315v-.722a2.813 2.813 0 0 1-.758.606c-.264.142-.518.21-.765.21-.303 0-.53-.095-.685-.294-.155-.195-.233-.486-.233-.88v-5.499h1.313v5.045c0 .156.033.268.085.334.055.074.146.11.268.11.097 0 .219-.046.367-.14a1.73 1.73 0 0 0 .408-.355v-4.994h1.315v6.578zm4.768-1.36c0 .464-.102.822-.308 1.07-.204.25-.504.373-.892.373-.26 0-.49-.047-.687-.143a1.65 1.65 0 0 1-.563-.449v.508H14.54v-8.916h1.331v2.871c.175-.2.364-.353.563-.455a1.29 1.29 0 0 1 .605-.158c.417 0 .734.14.956.418.219.281.326.691.326 1.232v3.649zm4.56-1.772h-2.512v1.238c0 .348.038.586.126.721.087.133.238.202.445.202.22 0 .37-.06.458-.172.087-.114.131-.362.131-.75v-.3h1.352v.338c0 .674-.163 1.18-.495 1.524-.327.34-.82.506-1.475.506-.59 0-1.054-.176-1.392-.541-.335-.356-.507-.854-.507-1.489v-2.952c0-.57.186-1.04.56-1.397.372-.36.847-.54 1.436-.54.602 0 1.066.167 1.39.5.323.333.483.81.483 1.437v1.675zm-1.929-2.46c-.207 0-.358.06-.448.183-.094.113-.135.312-.135.588v.664h1.16v-.664c0-.276-.047-.475-.136-.588-.091-.123-.24-.184-.44-.184zm-4.533-.024a.612.612 0 0 0-.276.064.936.936 0 0 0-.272.201v4.1c.105.103.21.188.309.233.105.047.207.07.321.07.16 0 .276-.045.352-.137.076-.096.114-.246.114-.455v-3.396c0-.225-.044-.391-.137-.508a.512.512 0 0 0-.411-.172zm-8.505-7.26H9.58V7.038l1.94-5.748H9.826l-1.03 3.926h-.107L7.608 1.29H5.93l1.983 5.932v3.892zm5.862.181c.673 0 1.2-.175 1.588-.529.382-.355.573-.84.573-1.459v-3.74c0-.55-.197-1.006-.585-1.355-.393-.352-.894-.528-1.508-.528-.67 0-1.206.17-1.606.499-.4.332-.597.777-.597 1.34v3.755c0 .617.195 1.106.583 1.471.387.365.909.546 1.552.546zm-.611-5.828c0-.154.058-.28.166-.38a.652.652 0 0 1 .442-.147c.196 0 .356.047.475.147.12.1.182.226.182.38V9.42a.597.597 0 0 1-.178.457.68.68 0 0 1-.479.164c-.198 0-.346-.055-.45-.162-.106-.112-.158-.262-.158-.46v-3.95zm5.008 5.753c.276 0 .562-.08.856-.231.297-.158.583-.383.85-.678v.803h1.484V3.868H19.88v5.5c-.137.158-.288.29-.454.389-.166.101-.306.154-.414.154-.14 0-.242-.04-.3-.117-.062-.075-.097-.202-.097-.373V3.868h-1.476v6.055c0 .433.088.753.26.97.173.215.43.327.774.327z"/></svg></svg>